<?xml version="1.0" encoding="UTF-8" standalone="no"?>
<svg
   width="24"
   height="24"
   viewBox="0 0 144 144"
   version="1.1"
   id="svg1"
   sodipodi:docname="BrightnessCommand.svg"
   inkscape:version="1.4.2 (f4327f4, 2025-05-13)"
   xmlns:inkscape="http://www.inkscape.org/namespaces/inkscape"
   xmlns:sodipodi="http://sodipodi.sourceforge.net/DTD/sodipodi-0.dtd"
   xmlns="http://www.w3.org/2000/svg"
   xmlns:svg="http://www.w3.org/2000/svg">
  <sodipodi:namedview
     id="namedview1"
     pagecolor="#000000"
     bordercolor="#000000"
     borderopacity="0.25"
     inkscape:showpageshadow="2"
     inkscape:pageopacity="0.0"
     inkscape:pagecheckerboard="0"
     inkscape:deskcolor="#d1d1d1"
     inkscape:zoom="35.5625"
     inkscape:cx="21.103691"
     inkscape:cy="8.0843585"
     inkscape:window-width="3840"
     inkscape:window-height="2036"
     inkscape:window-x="4468"
     inkscape:window-y="-12"
     inkscape:window-maximized="1"
     inkscape:current-layer="svg1" />
  <defs
     id="defs1" />
  <rect
     fill="#ffffff"
     height="12.705483"
     id="svg_1"
     rx="2.1249197"
     width="25.499035"
     x="59.244583"
     y="112.32015"
     style="stroke-width:1.06062" />
  <rect
     fill="#ffffff"
     height="8.4703217"
     id="svg_2"
     rx="3.1873794"
     width="29.748873"
     x="57.119663"
     y="122.90806"
     style="stroke-width:1.06062" />
  <rect
     fill="#ffffff"
     height="4.2351608"
     id="svg_3"
     width="16.999357"
     x="63.494423"
     y="117.61411"
     style="stroke-width:1.06062" />
  <rect
     fill="#ffffff"
     fill-opacity="0.01"
     height="84.703224"
     id="svg_4"
     rx="19.124277"
     ry="19.058226"
     stroke="#ffffff"
     stroke-width="8.48502"
     width="84.99678"
     x="29.495708"
     y="17.02903" />
  <rect
     fill="#ffffff"
     height="10.587903"
     id="svg_21"
     width="4.2498393"
     x="69.869179"
     y="101.73226"
     style="stroke-width:1.06062" />
  <g
     id="g1"
     transform="matrix(0.14049882,0,0,0.14049882,58.86185,52.149343)"
     style="fill:#ffffff">
    <path
       d="m 93.468752,-180 c -10.609008,0 -19.289064,8.68005 -19.289064,19.28905 v 38.57813 c 0,10.609 8.680056,19.28907 19.289064,19.28907 10.609008,0 19.289068,-8.68007 19.289068,-19.28907 v -38.57813 c 0,-10.609 -8.68006,-19.28905 -19.289068,-19.28905 z"
       style="fill:#ffffff;stroke-width:19.2891"
       id="path41" />
    <path
       d="m 93.468752,-64.265632 c -63.846924,0 -115.734378,51.887454 -115.734378,115.734378 0,63.846914 51.887454,115.734374 115.734378,115.734374 63.846918,0 115.734368,-51.88746 115.734368,-115.734374 0,-63.846924 -51.88745,-115.734378 -115.734368,-115.734378 z m 0,39.738282 c 21.025118,0 39.929738,8.482944 53.624998,22.371096 L 39.843752,105.09375 C 25.9556,91.398482 17.472656,72.493868 17.472656,51.468746 c 0,-42.050238 33.945858,-75.996096 75.996096,-75.996096 z"
       style="clip-rule:evenodd;fill:#ffffff;fill-rule:evenodd;stroke-width:19.2891"
       id="path40" />
    <path
       d="m 243.46875,-117.9375 c -4.94283,0 -9.85581,1.88706 -13.61718,5.64843 l -27.19923,27.38672 c -7.52274,7.522752 -7.52275,19.676472 0,27.199218 7.52277,7.522752 19.67648,7.522752 27.19923,0 l 27.38671,-27.199218 c 7.52275,-7.522746 7.52275,-19.67108 0,-27.38672 -3.85782,-3.76137 -8.8267,-5.64843 -13.76953,-5.64843 z"
       style="fill:#ffffff;stroke-width:19.2891"
       id="path39" />
    <path
       d="m -118.71093,32.179682 c -10.60901,0 -19.28907,8.680056 -19.28907,19.289064 0,10.609008 8.68006,19.289058 19.28907,19.289058 h 38.578118 c 10.609002,0 19.289064,-8.68005 19.289064,-19.289058 0,-10.609008 -8.680062,-19.289064 -19.289064,-19.289064 z"
       style="fill:#ffffff;stroke-width:19.2891"
       id="path38" />
    <path
       d="m -56.51953,-117.9375 c -4.94283,0 -9.911712,1.88706 -13.769532,5.64843 -7.522746,7.71564 -7.522746,19.863974 0,27.38672 l 27.386718,27.199218 c 7.522752,7.522752 19.676466,7.522752 27.199218,0 7.522746,-7.522752 7.522746,-19.676466 0,-27.199218 l -27.199218,-27.38672 c -3.76137,-3.76137 -8.674356,-5.64843 -13.617186,-5.64843 z"
       style="fill:#ffffff;stroke-width:19.2891"
       id="path37" />
    <path
       d="m 93.468752,205.78125 c -10.609008,0 -19.289064,8.68005 -19.289064,19.28905 v 38.57813 c 0,10.60901 8.680056,19.28907 19.289064,19.28907 10.609008,0 19.289068,-8.68006 19.289068,-19.28907 V 225.0703 c 0,-10.609 -8.68006,-19.28905 -19.289068,-19.28905 z"
       style="fill:#ffffff;stroke-width:19.2891"
       id="path36" />
    <path
       d="m -29.296876,155.0039 c -4.918716,0 -9.844092,1.88706 -13.605468,5.64844 l -27.386718,27.1875 c -7.522746,7.52274 -7.522746,19.6828 0,27.39843 7.71564,7.52277 19.863972,7.52276 27.386718,0 l 27.199218,-27.39843 c 7.522746,-7.52276 7.522746,-19.66475 0,-27.1875 -3.761376,-3.76138 -8.675028,-5.64844 -13.59375,-5.64844 z"
       style="fill:#ffffff;stroke-width:19.2891"
       id="path35" />
    <path
       d="m 267.07031,32.179682 c -10.60898,0 -19.28906,8.680056 -19.28906,19.289064 0,10.609008 8.68008,19.289058 19.28906,19.289058 h 38.57814 c 10.60902,0 19.28904,-8.68005 19.28904,-19.289058 0,-10.609008 -8.68002,-19.289064 -19.28904,-19.289064 z"
       style="fill:#ffffff;stroke-width:19.2891"
       id="path34" />
    <path
       d="m 216.24609,155.0039 c -4.9187,0 -9.83237,1.88706 -13.59375,5.64844 -7.52274,7.52275 -7.52275,19.66474 0,27.1875 l 27.19923,27.39843 c 7.52275,7.52277 19.67107,7.52277 27.38671,0 7.52275,-7.71563 7.52275,-19.87569 0,-27.39843 l -27.38671,-27.1875 c -3.76138,-3.76138 -8.68676,-5.64844 -13.60548,-5.64844 z"
       style="fill:#ffffff;stroke-width:19.2891"
       id="path33" />
  </g>
</svg>
