<?xml version="1.0" encoding="UTF-8" standalone="no"?>
<svg
   width="24"
   height="24"
   viewBox="0 0 144 144"
   version="1.1"
   id="svg1"
   xmlns="http://www.w3.org/2000/svg"
   xmlns:svg="http://www.w3.org/2000/svg">
  <defs
     id="defs1" />
  <rect
     fill="#ffffff"
     height="12.705483"
     id="svg_1"
     rx="2.1249197"
     width="25.499035"
     x="59.244583"
     y="112.32015"
     style="stroke-width:1.06062" />
  <rect
     fill="#ffffff"
     height="8.4703217"
     id="svg_2"
     rx="3.1873794"
     width="29.748873"
     x="57.119663"
     y="122.90806"
     style="stroke-width:1.06062" />
  <rect
     fill="#ffffff"
     height="4.2351608"
     id="svg_3"
     width="16.999357"
     x="63.494423"
     y="117.61411"
     style="stroke-width:1.06062" />
  <rect
     fill="#ffffff"
     fill-opacity="0.01"
     height="84.703224"
     id="svg_4"
     rx="19.124277"
     ry="19.058226"
     stroke="#ffffff"
     stroke-width="8.48502"
     width="84.99678"
     x="29.495708"
     y="17.02903" />
  <g
     style="fill:#ffffff;fill-opacity:1;stroke:none"
     id="g2"
     transform="matrix(0.5477969,0,0,0.5477969,-468.60116,-473.39531)">
    <path
       d="m 1016.2155,932.22694 c 12.8459,9.17562 21.2059,24.18286 21.2059,41.16798 0,27.89388 -22.5925,50.50668 -50.46604,50.56788 -27.83272,0.061 -50.62905,-22.6332 -50.66983,-50.48638 -0.0204,-16.98506 8.33962,-32.03308 21.16511,-41.22909 2.38565,-1.6924 5.70927,-0.97874 7.13659,1.57005 l 3.22166,5.72967 c 1.20303,2.14097 0.6321,4.85288 -1.34576,6.32098 -8.46196,6.2802 -13.86538,16.23066 -13.86538,27.5065 -0.0204,18.82014 15.19075,34.27607 34.25566,34.27607 18.67759,0 34.37809,-15.12963 34.25579,-34.47999 -0.062,-10.56217 -5.0364,-20.7573 -13.8858,-27.32297 -1.9779,-1.4681 -2.5284,-4.18001 -1.3254,-6.30059 l 3.2217,-5.72967 c 1.4273,-2.52839 4.7305,-3.28284 7.0958,-1.59044 z m -21.20597,42.79919 v -48.93667 c 0,-2.7119 -2.18176,-4.89366 -4.89367,-4.89366 h -6.52489 c -2.71191,0 -4.89367,2.18176 -4.89367,4.89366 v 48.93667 c 0,2.71192 2.18176,4.89364 4.89367,4.89364 h 6.52489 c 2.71191,0 4.89367,-2.18172 4.89367,-4.89364 z"
       id="path1"
       style="fill:#ffffff;fill-opacity:1;stroke:none;stroke-width:0.203903" />
  </g>
  <rect
     fill="#ffffff"
     height="10.587903"
     id="svg_21"
     width="4.2498393"
     x="69.869179"
     y="101.73226"
     style="stroke-width:1.06062" />
</svg>
