<?xml version="1.0" encoding="UTF-8" standalone="no"?>
<svg
   width="144"
   height="144"
   version="1.1"
   id="svg1"
   sodipodi:docname="adjust_brightness.svg"
   inkscape:version="1.4.2 (f4327f4, 2025-05-13)"
   xmlns:inkscape="http://www.inkscape.org/namespaces/inkscape"
   xmlns:sodipodi="http://sodipodi.sourceforge.net/DTD/sodipodi-0.dtd"
   xmlns="http://www.w3.org/2000/svg"
   xmlns:svg="http://www.w3.org/2000/svg">
  <sodipodi:namedview
     id="namedview1"
     pagecolor="#ffffff"
     bordercolor="#000000"
     borderopacity="0.25"
     inkscape:showpageshadow="2"
     inkscape:pageopacity="0.0"
     inkscape:pagecheckerboard="0"
     inkscape:deskcolor="#d1d1d1"
     inkscape:zoom="5.3680556"
     inkscape:cx="72.093144"
     inkscape:cy="73.117723"
     inkscape:window-width="1920"
     inkscape:window-height="991"
     inkscape:window-x="1911"
     inkscape:window-y="-9"
     inkscape:window-maximized="1"
     inkscape:current-layer="svg1" />
  <defs
     id="defs1" />
  <path
     d="m 59.457031,119.5625 c -1.389099,0 -2.507812,1.11871 -2.507812,2.50781 v 9.97852 c 0,0.0732 0.0037,0.14525 0.0098,0.21679 0.0021,-7e-4 0.0037,-0.001 0.0059,-0.002 0.0191,-0.007 0.03936,-0.0113 0.05859,-0.0176 0.04512,-0.0148 0.09085,-0.0279 0.136719,-0.041 0.0714,-0.0205 0.143702,-0.0384 0.216797,-0.0547 0.0014,-3.1e-4 0.0025,-0.002 0.0039,-0.002 0.03251,-0.007 0.06483,-0.0151 0.09766,-0.0215 0.0051,-9.9e-4 0.01049,-9.9e-4 0.01563,-0.002 0.08749,-0.0166 0.176063,-0.0286 0.265625,-0.0391 0.0085,-9.5e-4 0.01695,-0.003 0.02539,-0.004 0.01816,-0.003 0.03627,-0.006 0.05469,-0.008 0.0051,-4.9e-4 0.01049,4.7e-4 0.01563,0 0.114495,-0.0104 0.230363,-0.0176 0.347656,-0.0176 h 27.582031 c 0.116153,0 0.23035,0.007 0.34375,0.0176 0.0064,5.9e-4 0.01312,-6.2e-4 0.01953,0 0.02302,0.003 0.04559,0.007 0.06836,0.01 0.0039,5.2e-4 0.0078,0.002 0.01172,0.002 0.08554,0.01 0.170251,0.0215 0.253906,0.0371 0.009,0.002 0.01836,0.002 0.02734,0.004 0.03282,0.006 0.06515,0.0143 0.09766,0.0215 0.0078,0.002 0.01562,0.004 0.02344,0.006 0.06501,0.0149 0.129707,0.0307 0.19336,0.0488 0.0321,0.009 0.06396,0.0193 0.0957,0.0293 0.01496,0.005 0.03008,0.009 0.04492,0.0137 0.02129,0.007 0.04334,0.0122 0.06445,0.0195 0.0061,-0.0716 0.0098,-0.14359 0.0098,-0.21679 v -9.97852 c 10e-7,-1.3891 -1.118713,-2.50781 -2.507812,-2.50781 H 74.501953 69.486328 Z m 2.507813,6.24805 h 20.058593 v 4.99609 H 61.964844 Z"
     style="stroke-width:1.25153"
     id="path47" />
  <path
     d="m 58.203125,132.05664 c -2.083649,0 -3.761719,1.67807 -3.761719,3.76172 v 2.47266 c 0,2.08365 1.67807,3.75976 3.761719,3.75976 h 27.582031 c 2.08365,0 3.759766,-1.67611 3.759766,-3.75976 v -2.47266 c 0,-2.08365 -1.676116,-3.76172 -3.759766,-3.76172 z"
     style="stroke-width:1.25153"
     id="path46" />
  <path
     d="m 61.964844,125.81055 v 4.99609 h 20.058593 v -4.99609 z"
     style="stroke-width:1.25153"
     id="path45" />
  <path
     d="m 44.412109,12.125 c -0.594217,1.5e-5 -1.180124,0.03265 -1.757812,0.08789 -0.175451,0.01679 -0.345758,0.04858 -0.519531,0.07031 -0.394429,0.04931 -0.78862,0.101598 -1.173829,0.175781 -0.219355,0.04227 -0.432282,0.09831 -0.648437,0.148438 -0.332193,0.077 -0.664094,0.154905 -0.988281,0.25 -0.225353,0.06614 -0.444759,0.144084 -0.666016,0.21875 -0.305186,0.102942 -0.609269,0.20744 -0.90625,0.326172 -0.224729,0.08989 -0.444276,0.18842 -0.664062,0.287109 -0.275261,0.123557 -0.547315,0.251689 -0.814454,0.388672 -0.226108,0.115982 -0.447951,0.237953 -0.667968,0.363281 -0.253239,0.144223 -0.503234,0.292973 -0.748047,0.449219 -0.210745,0.134536 -0.418806,0.272834 -0.623047,0.416016 -0.238472,0.167158 -0.47193,0.340947 -0.701172,0.519531 -0.199086,0.155116 -0.396033,0.313103 -0.587891,0.476562 -0.195216,0.166318 -0.382851,0.340934 -0.570312,0.515625 -0.242597,0.226174 -0.479893,0.457611 -0.708984,0.697266 -0.200254,0.209435 -0.396416,0.423237 -0.585938,0.642578 -0.132256,0.153076 -0.265706,0.305154 -0.392578,0.462891 -0.208954,0.259794 -0.405737,0.52881 -0.599609,0.800781 -0.108925,0.152791 -0.224104,0.300544 -0.328125,0.457031 -0.275583,0.41465 -0.533623,0.841981 -0.773438,1.28125 -0.07728,0.141512 -0.143367,0.289661 -0.216797,0.433594 -0.16287,0.319319 -0.321409,0.641933 -0.464844,0.972656 -0.07906,0.182285 -0.14967,0.369105 -0.222656,0.554688 -0.125856,0.320052 -0.244241,0.643279 -0.351562,0.972656 -0.06007,0.184335 -0.117765,0.369533 -0.171875,0.556641 -0.09529,0.329543 -0.177539,0.66427 -0.253907,1.001953 -0.04449,0.196722 -0.09295,0.392467 -0.130859,0.591797 -0.08005,0.420992 -0.141503,0.849438 -0.191406,1.28125 -0.01242,0.107491 -0.03246,0.212191 -0.04297,0.320312 -0.05631,0.579131 -0.08789,1.166091 -0.08789,1.761719 v 54.972656 c 3e-6,9.762592 7.736185,17.482422 17.560547,17.482422 h 55.164063 c 0.597518,0 1.186778,-0.032 1.767578,-0.0879 0.18897,-0.0182 0.37157,-0.0542 0.55859,-0.0781 0.38683,-0.0494 0.77443,-0.0985 1.15235,-0.17187 0.22218,-0.0431 0.43735,-0.10308 0.65625,-0.1543 0.33315,-0.0779 0.66711,-0.15385 0.99219,-0.25 0.23837,-0.0705 0.46935,-0.15628 0.70312,-0.23633 0.29144,-0.0998 0.58329,-0.19826 0.86719,-0.3125 0.23807,-0.0958 0.46868,-0.20488 0.70117,-0.31054 0.27083,-0.12313 0.54179,-0.24471 0.80469,-0.38086 0.22739,-0.117742 0.44679,-0.245837 0.66797,-0.373049 0.25379,-0.146 0.5067,-0.293062 0.75195,-0.451172 0.21782,-0.140415 0.42983,-0.289775 0.64062,-0.439453 0.2294,-0.162925 0.457,-0.328394 0.67774,-0.501953 0.20939,-0.164612 0.41199,-0.335893 0.61328,-0.509766 0.21078,-0.182095 0.41757,-0.368632 0.61914,-0.560546 0.18466,-0.175812 0.36632,-0.355287 0.54297,-0.539063 0.2075,-0.215897 0.40942,-0.437573 0.60547,-0.664062 0.15552,-0.179665 0.30895,-0.360787 0.45703,-0.546875 0.19129,-0.240412 0.37232,-0.487558 0.55078,-0.738282 0.14031,-0.197106 0.27998,-0.39443 0.41211,-0.597656 0.15965,-0.2456 0.30774,-0.499733 0.45508,-0.753906 0.12807,-0.220927 0.25845,-0.440843 0.37695,-0.667969 0.13573,-0.260197 0.25807,-0.52891 0.38086,-0.796875 0.1063,-0.231973 0.21616,-0.461697 0.3125,-0.699219 0.119,-0.293417 0.22085,-0.595032 0.32422,-0.896484 0.0754,-0.219846 0.15776,-0.436256 0.22461,-0.660156 0.0961,-0.321838 0.17006,-0.652675 0.24805,-0.982422 0.053,-0.22429 0.11569,-0.444139 0.16015,-0.671875 0.0688,-0.352313 0.11246,-0.714188 0.16016,-1.074219 0.0277,-0.209421 0.0674,-0.415091 0.0879,-0.626953 0.0555,-0.574792 0.0879,-1.157022 0.0879,-1.748047 V 29.607422 C 117.13672,19.84483 109.40053,12.125 99.576172,12.125 Z m 27.585938,6.619141 c 1.768168,0 3.214844,1.446675 3.214844,3.214843 v 6.429688 c 0,1.768167 -1.446676,3.214844 -3.214844,3.214844 -1.768168,0 -3.214844,-1.446677 -3.214844,-3.214844 v -6.429688 c 0,-1.768168 1.446676,-3.214843 3.214844,-3.214843 z M 47,29.087891 c 0.823805,0 1.642636,0.31451 2.269531,0.941406 l 4.533203,4.564453 c 1.253791,1.253792 1.253791,3.279411 0,4.533203 -1.253792,1.253792 -3.279411,1.253792 -4.533203,0 L 44.705078,34.59375 c -1.253791,-1.253791 -1.253791,-3.278513 0,-4.564453 C 45.348048,29.402401 46.176195,29.087891 47,29.087891 Z m 49.998047,0 c 0.823805,0 1.651951,0.31451 2.294922,0.941406 1.253791,1.28594 1.253791,3.310662 0,4.564453 l -4.564453,4.533203 c -1.253791,1.253792 -3.27941,1.253792 -4.533204,0 -1.253792,-1.253791 -1.253791,-3.279411 0,-4.533203 l 4.533204,-4.564453 c 0.626896,-0.626896 1.445726,-0.941406 2.269531,-0.941406 z m -25,8.945312 c 10.641153,0 19.289062,8.647909 19.289062,19.289063 0,10.641153 -8.647909,19.289062 -19.289062,19.289062 -10.641154,0 -19.289063,-8.647909 -19.289063,-19.289062 2e-6,-0.66615 0.03932,-1.323762 0.105469,-1.972657 0.0015,-0.01514 0.0041,-0.02984 0.0059,-0.04492 0.02125,-0.203696 0.06033,-0.40174 0.08789,-0.603515 0.05766,-0.422155 0.116583,-0.842802 0.201172,-1.25586 6.6e-4,-0.0032 0.0013,-0.0065 0.002,-0.0098 0.03361,-0.163703 0.07617,-0.3237 0.117188,-0.484375 0.01932,-0.08301 0.04016,-0.165447 0.06055,-0.248047 0.09386,-0.380281 0.192507,-0.757837 0.308594,-1.128906 9.85e-4,-0.0032 9.66e-4,-0.0066 0.002,-0.0098 0.03412,-0.108862 0.0741,-0.214953 0.111328,-0.322266 0.04311,-0.129413 0.08704,-0.258535 0.132813,-0.386718 0.127722,-0.357716 0.262241,-0.710939 0.410156,-1.058594 0.102525,-0.240989 0.208376,-0.478979 0.320313,-0.714844 0.160283,-0.337731 0.332729,-0.667508 0.511718,-0.99414 2.79e-4,-5.08e-4 -2.78e-4,-0.0014 0,-0.002 0.0094,-0.01717 0.01989,-0.03362 0.0293,-0.05078 0.11272,-0.204178 0.223931,-0.409787 0.34375,-0.609375 0.197112,-0.328337 0.409287,-0.645636 0.625,-0.960937 0.136268,-0.199166 0.266715,-0.401988 0.410157,-0.595703 0.253692,-0.342647 0.525477,-0.669377 0.800781,-0.994141 0.123903,-0.14615 0.239064,-0.299035 0.367187,-0.441406 0.217968,-0.242239 0.455741,-0.464389 0.685547,-0.695313 0.209885,-0.212732 0.408463,-0.436688 0.628906,-0.638672 0.02623,-0.02403 0.05567,-0.04447 0.08203,-0.06836 0.139782,-0.126671 0.290135,-0.240693 0.433593,-0.363281 0.328318,-0.280548 0.659076,-0.558038 1.00586,-0.816407 0.189205,-0.140973 0.387587,-0.268228 0.582031,-0.402343 0.323413,-0.223071 0.649081,-0.441098 0.986328,-0.644532 0.216671,-0.130708 0.438058,-0.252679 0.660156,-0.375 0.319391,-0.175905 0.642594,-0.343946 0.972657,-0.501953 0.248774,-0.119106 0.499395,-0.233186 0.753906,-0.341797 0.334385,-0.142703 0.673852,-0.274408 1.017578,-0.398437 0.253044,-0.0913 0.505864,-0.180835 0.763672,-0.261719 0.361679,-0.113495 0.729155,-0.210347 1.099609,-0.302734 0.253448,-0.06321 0.50444,-0.130545 0.761719,-0.183594 0.437335,-0.09018 0.88255,-0.154887 1.330078,-0.214844 0.191569,-0.02567 0.378972,-0.064 0.572266,-0.08398 0.657865,-0.06802 1.324377,-0.107422 2,-0.107422 z m 0,6.623047 c -0.4172,1.3e-5 -0.829611,0.02134 -1.236328,0.06055 -0.0019,1.87e-4 -0.0039,-1.88e-4 -0.0059,0 -0.0681,0.0066 -0.133398,0.02163 -0.201172,0.0293 -0.336841,0.03809 -0.671788,0.08067 -1,0.144531 -0.06552,0.01275 -0.128212,0.03312 -0.193359,0.04687 -0.324909,0.06858 -0.647778,0.143448 -0.962891,0.236328 -0.166005,0.04892 -0.325213,0.11253 -0.488281,0.167969 -0.203564,0.06922 -0.410653,0.131809 -0.609375,0.210937 -0.189472,0.07544 -0.371832,0.165822 -0.55664,0.25 -0.173517,0.07906 -0.350345,0.151728 -0.519532,0.238282 -0.152286,0.07787 -0.296695,0.168179 -0.445312,0.251953 -0.189506,0.106878 -0.3812,0.209974 -0.564453,0.326172 -0.140228,0.08887 -0.271802,0.189038 -0.408203,0.283203 -0.181629,0.125426 -0.366466,0.248299 -0.541016,0.382812 -0.12287,0.09469 -0.238204,0.197826 -0.357422,0.296875 -0.192901,0.160275 -0.387371,0.316995 -0.570312,0.488281 -0.209124,0.195801 -0.402245,0.407696 -0.597657,0.617188 -0.119291,0.127036 -0.237943,0.254387 -0.351562,0.386719 -0.111467,0.129837 -0.216769,0.265283 -0.322266,0.40039 -0.03137,0.04017 -0.0646,0.07881 -0.0957,0.119141 -0.0094,0.01217 -0.01798,0.02493 -0.02734,0.03711 -0.110346,0.143425 -0.220345,0.287037 -0.324218,0.435547 -0.109907,0.157126 -0.212407,0.319624 -0.314454,0.482422 -0.02102,0.03354 -0.04357,0.06597 -0.06445,0.09961 -0.0097,0.01564 -0.01954,0.03126 -0.0293,0.04687 -0.0863,0.138153 -0.173897,0.275725 -0.253906,0.417969 -0.07404,0.131635 -0.139501,0.268602 -0.207031,0.404297 -0.05313,0.102973 -0.105888,0.205942 -0.15625,0.310547 -0.07132,0.144279 -0.144506,0.287318 -0.208984,0.435547 -0.06771,0.155642 -0.124556,0.316589 -0.183594,0.476562 -0.01987,0.05385 -0.04248,0.106334 -0.0625,0.160157 -0.0055,0.01485 -0.01004,0.0301 -0.01563,0.04492 -0.06324,0.167965 -0.130609,0.333955 -0.185547,0.50586 -0.07438,0.232741 -0.133886,0.471863 -0.193359,0.710937 -0.008,0.03213 -0.01742,0.06356 -0.02539,0.0957 -0.0024,0.0098 -0.0053,0.0195 -0.0078,0.0293 -0.03319,0.129594 -0.07173,0.257013 -0.09961,0.388672 -0.06471,0.305645 -0.108082,0.618203 -0.150391,0.931641 -0.01715,0.127009 -0.04522,0.250717 -0.05859,0.378906 -0.04583,0.43922 -0.07031,0.88435 -0.07031,1.335938 0,3.504187 1.413824,6.654956 3.728516,8.9375 l 17.875,-17.875 c -2.282544,-2.314692 -5.433313,-3.728516 -8.9375,-3.728516 z m -35.363281,9.451172 h 6.429687 c 1.768167,0 3.214844,1.446676 3.214844,3.214844 0,1.768168 -1.446677,3.214843 -3.214844,3.214843 h -6.429687 c -1.768168,0 -3.214844,-1.446675 -3.214844,-3.214843 0,-1.768168 1.446676,-3.214844 3.214844,-3.214844 z m 64.296874,0 h 6.42969 c 1.76817,0 3.21484,1.446676 3.21484,3.214844 0,1.768168 -1.44667,3.214843 -3.21484,3.214843 h -6.42969 c -1.768164,0 -3.214843,-1.446675 -3.214843,-3.214843 10e-7,-0.104139 0.0058,-0.206916 0.01563,-0.308594 3.2e-4,-0.0033 0.0016,-0.0064 0.002,-0.0098 0.003,-0.03029 0.0079,-0.0598 0.01172,-0.08984 0.0097,-0.07545 0.02028,-0.150846 0.03516,-0.224609 0.0069,-0.03437 0.01542,-0.06759 0.02344,-0.101562 0.01504,-0.06366 0.03005,-0.127284 0.04883,-0.189454 0.01665,-0.05506 0.03715,-0.108319 0.05664,-0.162109 0.01429,-0.03946 0.02914,-0.07845 0.04492,-0.117187 0.02485,-0.06098 0.05165,-0.12061 0.08008,-0.179688 0.01352,-0.0281 0.02671,-0.05633 0.04102,-0.08398 0.03168,-0.06122 0.06614,-0.120811 0.101562,-0.179688 0.01733,-0.02882 0.03454,-0.0577 0.05273,-0.08594 0.0344,-0.05333 0.07003,-0.10512 0.107422,-0.15625 0.02335,-0.03195 0.04778,-0.06271 0.07227,-0.09375 0.02818,-0.03571 0.05631,-0.071 0.08594,-0.105469 0.04442,-0.05173 0.09112,-0.101574 0.138672,-0.150391 0.02184,-0.0224 0.04393,-0.04464 0.06641,-0.06641 0.04207,-0.04077 0.08468,-0.08069 0.128906,-0.119141 0.04021,-0.03495 0.08114,-0.06861 0.123047,-0.101562 0.03261,-0.02565 0.06601,-0.04982 0.09961,-0.07422 0.0428,-0.03108 0.08456,-0.06281 0.128907,-0.0918 0.04324,-0.02829 0.08818,-0.05385 0.132812,-0.08008 0.04897,-0.02876 0.09788,-0.05778 0.148438,-0.08398 0.02816,-0.0146 0.0573,-0.02723 0.08594,-0.04102 0.05908,-0.02843 0.118703,-0.05523 0.179688,-0.08008 0.03872,-0.01578 0.07774,-0.03063 0.117187,-0.04492 0.05379,-0.01949 0.107052,-0.03999 0.162107,-0.05664 0.0622,-0.01879 0.1258,-0.03379 0.18946,-0.04883 0.034,-0.008 0.0672,-0.01651 0.10156,-0.02344 0.0738,-0.01488 0.14916,-0.02547 0.22461,-0.03516 0.0269,-0.0034 0.053,-0.0089 0.0801,-0.01172 0.10791,-0.01107 0.21741,-0.01758 0.32812,-0.01758 z M 51.537109,74.578125 c 0.819787,0 1.638729,0.31451 2.265625,0.941406 1.253791,1.253792 1.253791,3.277458 0,4.53125 l -4.533203,4.566406 c -1.253791,1.253793 -3.278513,1.253794 -4.564453,0 -1.253791,-1.285939 -1.253791,-3.312615 0,-4.566406 l 4.564453,-4.53125 c 0.626896,-0.626896 1.447792,-0.941406 2.267578,-0.941406 z m 40.923828,0 c 0.819787,0 1.640683,0.31451 2.267579,0.941406 l 4.564453,4.53125 c 1.253791,1.253791 1.253791,3.280467 0,4.566406 -1.28594,1.253794 -3.310661,1.253794 -4.564453,0 l -4.533204,-4.566406 c -0.07491,-0.07491 -0.14498,-0.152345 -0.210937,-0.232422 -0.01155,-0.01402 -0.02193,-0.0288 -0.0332,-0.04297 -0.04899,-0.06156 -0.09486,-0.1253 -0.138672,-0.189454 -0.02032,-0.02975 -0.03938,-0.05958 -0.05859,-0.08984 -0.03717,-0.05855 -0.07247,-0.117423 -0.105469,-0.177735 -0.01081,-0.01976 -0.02285,-0.03866 -0.0332,-0.05859 -0.01799,-0.0346 -0.03219,-0.07038 -0.04883,-0.105469 -0.05686,-0.119976 -0.107345,-0.242442 -0.148437,-0.367188 -0.0056,-0.017 -0.01226,-0.0337 -0.01758,-0.05078 -0.04166,-0.134017 -0.07209,-0.270786 -0.0957,-0.408203 -0.007,-0.04105 -0.01214,-0.08181 -0.01758,-0.123047 -0.01844,-0.139571 -0.03125,-0.279379 -0.03125,-0.419922 0,-0.0013 -10e-7,-0.0026 0,-0.0039 4e-6,-0.0033 -1.3e-5,-0.0065 0,-0.0098 5.99e-4,-0.140576 0.01415,-0.28038 0.0332,-0.419922 0.0051,-0.03727 0.0092,-0.07422 0.01563,-0.111328 0.02418,-0.140194 0.05665,-0.279389 0.09961,-0.416015 0.0056,-0.01767 0.01171,-0.03514 0.01758,-0.05273 0.0432,-0.129446 0.09604,-0.256643 0.15625,-0.380859 0.0074,-0.01534 0.01183,-0.03163 0.01953,-0.04687 0.0031,-0.0062 0.0085,-0.01136 0.01172,-0.01758 0.0668,-0.130247 0.14268,-0.254873 0.228516,-0.376953 0.03331,-0.0474 0.06733,-0.09467 0.103515,-0.140625 0.01579,-0.02005 0.03053,-0.04078 0.04687,-0.06055 0.0649,-0.07852 0.133497,-0.154981 0.207031,-0.228516 0.626897,-0.626896 1.445841,-0.941406 2.265625,-0.941406 z m -20.46289,8.462891 c 1.768168,0 3.214844,1.446676 3.214844,3.214843 v 6.429688 c 0,1.768168 -1.446676,3.214844 -3.214844,3.214844 -1.768168,0 -3.214844,-1.446676 -3.214844,-3.214844 v -6.429688 c 0,-1.768167 1.446676,-3.214843 3.214844,-3.214843 z"
     style="baseline-shift:baseline;display:inline;overflow:visible;vector-effect:none;fill-opacity:0.01;enable-background:accumulate;stop-color:#000000"
     id="path44" />
  <path
     d="m 44.412109,2.1132813 c -15.179431,0 -27.572265,12.3392967 -27.572265,27.4941407 v 54.972656 c 0,15.154844 12.392834,27.496092 27.572265,27.496092 h 25.074219 v -5.00781 h 5.015625 v 5.00781 h 25.074219 c 15.179428,0 27.572268,-12.341248 27.572268,-27.496092 V 29.607422 c 0,-15.154844 -12.39284,-27.4941408 -27.572268,-27.4941407 z m 0,10.0117187 h 55.164063 c 9.824358,0 17.560548,7.71983 17.560548,17.482422 v 54.972656 c 0,9.762592 -7.73619,17.482422 -17.560548,17.482422 H 44.412109 c -9.824362,0 -17.560544,-7.71983 -17.560547,-17.482422 V 29.607422 c 0,-9.762592 7.736185,-17.482422 17.560547,-17.482422 z"
     style="baseline-shift:baseline;display:inline;overflow:visible;vector-effect:none;enable-background:accumulate;stop-color:#000000"
     id="path43" />
  <path
     d="m 69.486328,107.06836 v 12.49414 h 5.015625 v -12.49414 z"
     style="stroke-width:1.25153"
     id="path42" />
  <path
     d="m 71.998047,18.744141 c -1.768168,0 -3.214844,1.446675 -3.214844,3.214843 v 6.429688 c 0,1.768167 1.446676,3.214844 3.214844,3.214844 1.768168,0 3.214844,-1.446677 3.214844,-3.214844 v -6.429688 c 0,-1.768168 -1.446676,-3.214843 -3.214844,-3.214843 z"
     style="stroke-width:3.21485"
     id="path41" />
  <path
     d="m 71.998047,38.033203 c -10.641154,0 -19.289063,8.647909 -19.289063,19.289063 0,10.641153 8.647909,19.289062 19.289063,19.289062 10.641153,0 19.289062,-8.647909 19.289062,-19.289062 0,-10.641154 -8.647909,-19.289063 -19.289062,-19.289063 z m 0,6.623047 c 3.504187,0 6.654956,1.413824 8.9375,3.728516 l -17.875,17.875 c -2.314692,-2.282544 -3.728516,-5.433313 -3.728516,-8.9375 0,-7.008373 5.657643,-12.666016 12.666016,-12.666016 z"
     style="clip-rule:evenodd;fill-rule:evenodd;stroke-width:3.21485"
     id="path40" />
  <path
     d="m 96.998047,29.087891 c -0.823805,0 -1.642635,0.31451 -2.269531,0.941406 l -4.533204,4.564453 c -1.253791,1.253792 -1.253792,3.279412 0,4.533203 1.253794,1.253792 3.279413,1.253792 4.533204,0 l 4.564453,-4.533203 c 1.253791,-1.253791 1.253791,-3.278513 0,-4.564453 -0.642971,-0.626896 -1.471117,-0.941406 -2.294922,-0.941406 z"
     style="stroke-width:3.21485"
     id="path39" />
  <path
     d="m 36.634766,54.107422 c -1.768168,0 -3.214844,1.446676 -3.214844,3.214844 0,1.768168 1.446676,3.214843 3.214844,3.214843 h 6.429687 c 1.768167,0 3.214844,-1.446675 3.214844,-3.214843 0,-1.768168 -1.446677,-3.214844 -3.214844,-3.214844 z"
     style="stroke-width:3.21485"
     id="path38" />
  <path
     d="m 47,29.087891 c -0.823805,0 -1.651952,0.31451 -2.294922,0.941406 -1.253791,1.28594 -1.253791,3.310662 0,4.564453 l 4.564453,4.533203 c 1.253792,1.253792 3.279411,1.253792 4.533203,0 1.253791,-1.253792 1.253791,-3.279411 0,-4.533203 L 49.269531,30.029297 C 48.642636,29.402401 47.823805,29.087891 47,29.087891 Z"
     style="stroke-width:3.21485"
     id="path37" />
  <path
     d="m 71.998047,83.041016 c -1.768168,0 -3.214844,1.446676 -3.214844,3.214843 v 6.429688 c 0,1.768168 1.446676,3.214844 3.214844,3.214844 1.768168,0 3.214844,-1.446676 3.214844,-3.214844 v -6.429688 c 0,-1.768167 -1.446676,-3.214843 -3.214844,-3.214843 z"
     style="stroke-width:3.21485"
     id="path36" />
  <path
     d="m 51.537109,74.578125 c -0.819786,0 -1.640682,0.31451 -2.267578,0.941406 l -4.564453,4.53125 c -1.253791,1.253791 -1.253791,3.280467 0,4.566406 1.28594,1.253794 3.310662,1.253793 4.564453,0 l 4.533203,-4.566406 c 1.253791,-1.253792 1.253791,-3.277458 0,-4.53125 -0.626896,-0.626896 -1.445838,-0.941406 -2.265625,-0.941406 z"
     style="stroke-width:3.21485"
     id="path35" />
  <path
     d="m 100.93164,54.107422 c -1.768164,0 -3.214843,1.446676 -3.214843,3.214844 0,1.768168 1.446679,3.214843 3.214843,3.214843 h 6.42969 c 1.76817,0 3.21484,-1.446675 3.21484,-3.214843 0,-1.768168 -1.44667,-3.214844 -3.21484,-3.214844 z"
     style="stroke-width:3.21485"
     id="path34" />
  <path
     d="m 92.460937,74.578125 c -0.819784,0 -1.638728,0.31451 -2.265625,0.941406 -1.253791,1.253792 -1.253792,3.277458 0,4.53125 l 4.533204,4.566406 c 1.253792,1.253794 3.278513,1.253794 4.564453,0 1.253791,-1.285939 1.253791,-3.312615 0,-4.566406 l -4.564453,-4.53125 C 94.10162,74.892635 93.280724,74.578125 92.460937,74.578125 Z"
     style="stroke-width:3.21485"
     id="path33" />
</svg>
